<svg xmlns="http://www.w3.org/2000/svg" viewBox="0 0 512 512" role="img" aria-label="La Bétaillère">
  <defs>
    <radialGradient id="bg" cx="50%" cy="42%" r="70%">
      <stop offset="0" stop-color="#20324f"/>
      <stop offset="1" stop-color="#07101d"/>
    </radialGradient>
    <filter id="glow" x="-30%" y="-30%" width="160%" height="160%">
      <feGaussianBlur stdDeviation="6" result="b"/>
      <feMerge>
        <feMergeNode in="b"/>
        <feMergeNode in="SourceGraphic"/>
      </feMerge>
    </filter>
  </defs>
  <rect width="512" height="512" rx="112" fill="url(#bg)"/>
  <path d="M86 333c35-15 48-45 61-85 22-68 72-108 129-103 57 5 103 48 116 109 8 39 25 64 40 79" fill="none" stroke="#39d6ff" stroke-width="22" stroke-linecap="round" filter="url(#glow)"/>
  <path d="M154 248c22-43 61-67 102-64 47 3 83 35 96 83" fill="none" stroke="#e8fbff" stroke-width="12" stroke-linecap="round"/>
  <circle cx="200" cy="292" r="23" fill="#e8fbff"/>
  <circle cx="312" cy="292" r="23" fill="#e8fbff"/>
  <circle cx="198" cy="291" r="9" fill="#07101d"/>
  <circle cx="310" cy="291" r="9" fill="#07101d"/>
  <path d="M231 330c17 12 35 12 52 0" fill="none" stroke="#e8fbff" stroke-width="12" stroke-linecap="round"/>
  <path d="M169 177l-42-47M346 177l42-47" fill="none" stroke="#39d6ff" stroke-width="20" stroke-linecap="round" filter="url(#glow)"/>
  <path d="M133 389h246" stroke="#39d6ff" stroke-width="20" stroke-linecap="round" filter="url(#glow)"/>
  <path d="M156 418h200" stroke="#e8fbff" stroke-width="10" stroke-linecap="round" opacity=".8"/>
  <text x="256" y="107" text-anchor="middle" font-family="Arial, Helvetica, sans-serif" font-size="58" font-weight="900" fill="#e8fbff">BER</text>
</svg>
