<svg xmlns="http://www.w3.org/2000/svg" viewBox="0 0 64 64" fill="none">
  <defs>
    <filter id="g" x="-50%" y="-50%" width="200%" height="200%">
      <feGaussianBlur stdDeviation="1.8" result="b"/>
      <feMerge>
        <feMergeNode in="b"/>
        <feMergeNode in="SourceGraphic"/>
      </feMerge>
    </filter>
  </defs>
  <g stroke="#22e3ff" stroke-width="3" stroke-linecap="round" stroke-linejoin="round" filter="url(#g)">
    
<path d="M16 31c0-4 3-7 7-7h15c5 0 9 4 9 9v11c0 4-3 7-7 7H23c-4 0-7-3-7-7z"/>
<path d="M23 24c-5 0-9-4-9-9 0-4 3-7 7-7 4 0 8 2 10 6"/>
<path d="M27 10l4-2 4 2"/>
<path d="M18 17c-2 1-4 3-4 6"/>
<circle cx="22" cy="18" r="1.8" fill="#22e3ff" stroke="none"/>
<circle cx="17" cy="21" r="1.8" fill="#22e3ff" stroke="none"/>
<rect x="31" y="30" width="6" height="6" rx="1"/>
<rect x="40" y="30" width="6" height="6" rx="1"/>
<circle cx="38" cy="46" r="5"/>
<path d="M23 51h8M23 46h10"/>
<path d="M47 47c2 0 4 1 5 3"/>

  </g>
</svg>